<svg xmlns="http://www.w3.org/2000/svg" viewBox="0 0 1200 520">
  <defs>
    <linearGradient id="bg" x1="0" y1="0" x2="1" y2="1">
      <stop offset="0" stop-color="#060812"/>
      <stop offset="1" stop-color="#02030a"/>
    </linearGradient>
    <radialGradient id="glow" cx="35%" cy="30%" r="75%">
      <stop offset="0" stop-color="rgba(255,210,0,0.22)"/>
      <stop offset="0.6" stop-color="rgba(0,180,255,0.12)"/>
      <stop offset="1" stop-color="rgba(0,0,0,0)"/>
    </radialGradient>
    <linearGradient id="coin" x1="0" y1="0" x2="1" y2="1">
      <stop offset="0" stop-color="#ffd200"/>
      <stop offset="0.55" stop-color="#f7931a"/>
      <stop offset="1" stop-color="#ff6a00"/>
    </linearGradient>
    <linearGradient id="rim" x1="0" y1="0" x2="0" y2="1">
      <stop offset="0" stop-color="rgba(255,255,255,0.55)"/>
      <stop offset="1" stop-color="rgba(0,0,0,0.35)"/>
    </linearGradient>
    <filter id="soft" x="-20%" y="-20%" width="140%" height="140%">
      <feGaussianBlur stdDeviation="10"/>
    </filter>
    <filter id="shadow" x="-20%" y="-20%" width="140%" height="140%">
      <feDropShadow dx="0" dy="18" stdDeviation="14" flood-color="rgba(0,0,0,0.55)"/>
    </filter>
  </defs>

  <rect width="1200" height="520" fill="url(#bg)"/>
  <rect width="1200" height="520" fill="url(#glow)"/>

  <g opacity="0.35" filter="url(#soft)">
    <circle cx="330" cy="140" r="120" fill="rgba(0,180,255,0.35)"/>
    <circle cx="980" cy="420" r="170" fill="rgba(0,255,163,0.22)"/>
  </g>

  <g transform="translate(710 260)" filter="url(#shadow)">
    <circle r="210" fill="url(#coin)"/>
    <circle r="200" fill="none" stroke="url(#rim)" stroke-width="18" opacity="0.9"/>
    <circle r="150" fill="none" stroke="rgba(255,255,255,0.14)" stroke-width="2"/>
    <circle r="168" fill="none" stroke="rgba(0,0,0,0.18)" stroke-width="10"/>
    <path d="M-58 -112 H28 C76 -112 106 -90 106 -50 C106 -24 93 -6 70 6 C96 18 112 40 112 72 C112 122 78 150 18 150 H-58 Z" fill="rgba(255,255,255,0.16)"/>
    <path d="M-42 -98 H20 C56 -98 78 -84 78 -56 C78 -30 57 -16 20 -16 H-42 Z M-42 0 H24 C64 0 86 18 86 56 C86 92 63 112 20 112 H-42 Z" fill="rgba(0,0,0,0.22)"/>
    <path d="M-44 -100 H18 C62 -100 92 -82 92 -52 C92 -26 79 -8 54 4 C83 16 100 40 100 72 C100 118 70 140 18 140 H-44 Z" fill="rgba(255,255,255,0.92)"/>
    <rect x="-78" y="-132" width="26" height="290" rx="12" fill="rgba(255,255,255,0.92)"/>
    <rect x="46" y="-132" width="26" height="290" rx="12" fill="rgba(255,255,255,0.92)"/>
    <circle r="210" fill="none" stroke="rgba(255,255,255,0.08)" stroke-width="4"/>
    <path d="M-160 -80 C-60 -170 60 -170 160 -80" fill="none" stroke="rgba(255,255,255,0.18)" stroke-width="10" stroke-linecap="round"/>
  </g>

  <g opacity="0.7">
    <text x="80" y="120" font-family="Inter,system-ui,Segoe UI,Arial" font-size="34" font-weight="800" fill="rgba(245,245,245,0.92)">BTC Mining</text>
    <text x="80" y="162" font-family="Inter,system-ui,Segoe UI,Arial" font-size="14" font-weight="600" fill="rgba(245,245,245,0.62)" letter-spacing="0.12em">SIMULATED • EDUCATIONAL • VERIFIED DOWNLOADS</text>
  </g>
</svg>

