<svg xmlns="http://www.w3.org/2000/svg" viewBox="0 0 1200 520">
  <defs>
    <linearGradient id="bg" x1="0" y1="0" x2="1" y2="1">
      <stop offset="0" stop-color="#040713"/>
      <stop offset="1" stop-color="#02030a"/>
    </linearGradient>
    <linearGradient id="panel" x1="0" y1="0" x2="0" y2="1">
      <stop offset="0" stop-color="#0c1326"/>
      <stop offset="1" stop-color="#060a14"/>
    </linearGradient>
    <linearGradient id="accent" x1="0" y1="0" x2="1" y2="0">
      <stop offset="0" stop-color="#00ffa3"/>
      <stop offset="1" stop-color="#00b4ff"/>
    </linearGradient>
    <radialGradient id="glow" cx="35%" cy="35%" r="75%">
      <stop offset="0" stop-color="rgba(0,255,163,0.16)"/>
      <stop offset="0.55" stop-color="rgba(0,180,255,0.12)"/>
      <stop offset="1" stop-color="rgba(0,0,0,0)"/>
    </radialGradient>
    <filter id="shadow" x="-20%" y="-20%" width="140%" height="140%">
      <feDropShadow dx="0" dy="14" stdDeviation="14" flood-color="rgba(0,0,0,0.6)"/>
    </filter>
  </defs>

  <rect width="1200" height="520" fill="url(#bg)"/>
  <rect width="1200" height="520" fill="url(#glow)"/>

  <g transform="translate(120 90)" filter="url(#shadow)">
    <rect x="0" y="0" width="960" height="340" rx="18" fill="url(#panel)" stroke="rgba(255,255,255,0.10)" stroke-width="2"/>
    <rect x="0" y="0" width="960" height="14" rx="18" fill="rgba(255,255,255,0.06)"/>
    <rect x="0" y="326" width="960" height="14" rx="18" fill="rgba(0,0,0,0.25)"/>

    <g transform="translate(60 70)">
      <rect x="0" y="0" width="840" height="170" rx="16" fill="rgba(255,255,255,0.03)" stroke="rgba(255,255,255,0.08)"/>
      <g transform="translate(24 24)">
        <text x="0" y="0" font-family="JetBrains Mono,ui-monospace,Consolas" font-size="14" font-weight="700" fill="rgba(245,245,245,0.78)">RIG STATUS</text>
        <text x="0" y="28" font-family="JetBrains Mono,ui-monospace,Consolas" font-size="12" fill="rgba(245,245,245,0.58)">HASHRATE</text>
        <rect x="100" y="18" width="260" height="10" rx="5" fill="rgba(255,255,255,0.06)"/>
        <rect x="100" y="18" width="196" height="10" rx="5" fill="url(#accent)"/>
        <text x="372" y="28" font-family="JetBrains Mono,ui-monospace,Consolas" font-size="12" fill="rgba(245,245,245,0.58)">78.3%</text>

        <text x="0" y="58" font-family="JetBrains Mono,ui-monospace,Consolas" font-size="12" fill="rgba(245,245,245,0.58)">TEMP</text>
        <rect x="100" y="48" width="260" height="10" rx="5" fill="rgba(255,255,255,0.06)"/>
        <rect x="100" y="48" width="150" height="10" rx="5" fill="rgba(255,210,0,0.85)"/>
        <text x="372" y="58" font-family="JetBrains Mono,ui-monospace,Consolas" font-size="12" fill="rgba(245,245,245,0.58)">63°C</text>

        <text x="0" y="88" font-family="JetBrains Mono,ui-monospace,Consolas" font-size="12" fill="rgba(245,245,245,0.58)">POWER</text>
        <rect x="100" y="78" width="260" height="10" rx="5" fill="rgba(255,255,255,0.06)"/>
        <rect x="100" y="78" width="184" height="10" rx="5" fill="rgba(236,72,153,0.85)"/>
        <text x="372" y="88" font-family="JetBrains Mono,ui-monospace,Consolas" font-size="12" fill="rgba(245,245,245,0.58)">412W</text>

        <text x="0" y="118" font-family="JetBrains Mono,ui-monospace,Consolas" font-size="12" fill="rgba(245,245,245,0.58)">FANS</text>
        <text x="100" y="118" font-family="JetBrains Mono,ui-monospace,Consolas" font-size="12" fill="rgba(245,245,245,0.78)">AUTO</text>
      </g>
    </g>

    <g transform="translate(60 260)">
      <rect x="0" y="0" width="560" height="60" rx="16" fill="rgba(255,255,255,0.03)" stroke="rgba(255,255,255,0.08)"/>
      <circle cx="34" cy="30" r="10" fill="rgba(0,255,163,0.75)"/>
      <circle cx="34" cy="30" r="18" fill="rgba(0,255,163,0.18)"/>
      <text x="70" y="26" font-family="Inter,system-ui,Segoe UI,Arial" font-size="14" font-weight="700" fill="rgba(245,245,245,0.9)">MINING ACTIVE</text>
      <text x="70" y="44" font-family="Inter,system-ui,Segoe UI,Arial" font-size="12" fill="rgba(245,245,245,0.6)">Profiles ready • telemetry OK</text>
    </g>

    <g transform="translate(650 260)">
      <rect x="0" y="0" width="250" height="60" rx="16" fill="rgba(255,255,255,0.03)" stroke="rgba(255,255,255,0.08)"/>
      <text x="20" y="25" font-family="JetBrains Mono,ui-monospace,Consolas" font-size="11" fill="rgba(245,245,245,0.62)">POOL</text>
      <text x="20" y="45" font-family="JetBrains Mono,ui-monospace,Consolas" font-size="12" fill="rgba(245,245,245,0.86)">stratum+tls://•••</text>
    </g>
  </g>

  <g opacity="0.78">
    <text x="80" y="78" font-family="Inter,system-ui,Segoe UI,Arial" font-size="28" font-weight="800" fill="rgba(245,245,245,0.92)">Rig Dashboard</text>
    <text x="80" y="110" font-family="Inter,system-ui,Segoe UI,Arial" font-size="13" font-weight="600" fill="rgba(245,245,245,0.58)">Simulated UI art for faux mining pages</text>
  </g>
</svg>

