<svg xmlns="http://www.w3.org/2000/svg" viewBox="0 0 1200 520">
  <defs>
    <linearGradient id="bg" x1="0" y1="0" x2="1" y2="1">
      <stop offset="0" stop-color="#040611"/>
      <stop offset="1" stop-color="#02030a"/>
    </linearGradient>
    <radialGradient id="glow" cx="50%" cy="30%" r="80%">
      <stop offset="0" stop-color="rgba(0,180,255,0.14)"/>
      <stop offset="0.5" stop-color="rgba(0,255,163,0.10)"/>
      <stop offset="1" stop-color="rgba(0,0,0,0)"/>
    </radialGradient>
    <linearGradient id="rack" x1="0" y1="0" x2="0" y2="1">
      <stop offset="0" stop-color="#111a33"/>
      <stop offset="1" stop-color="#070b16"/>
    </linearGradient>
    <linearGradient id="floor" x1="0" y1="0" x2="0" y2="1">
      <stop offset="0" stop-color="rgba(255,255,255,0.06)"/>
      <stop offset="1" stop-color="rgba(0,0,0,0.42)"/>
    </linearGradient>
    <filter id="shadow" x="-20%" y="-20%" width="140%" height="140%">
      <feDropShadow dx="0" dy="18" stdDeviation="14" flood-color="rgba(0,0,0,0.65)"/>
    </filter>
  </defs>

  <rect width="1200" height="520" fill="url(#bg)"/>
  <rect width="1200" height="520" fill="url(#glow)"/>

  <g opacity="0.8">
    <path d="M0 380 C280 300 520 300 720 340 C900 380 1060 420 1200 470 L1200 520 L0 520 Z" fill="url(#floor)"/>
  </g>

  <g transform="translate(160 110)" filter="url(#shadow)">
    <g opacity="0.95">
      <rect x="0" y="0" width="260" height="280" rx="18" fill="url(#rack)" stroke="rgba(255,255,255,0.10)"/>
      <rect x="300" y="20" width="260" height="280" rx="18" fill="url(#rack)" stroke="rgba(255,255,255,0.10)"/>
      <rect x="600" y="40" width="260" height="280" rx="18" fill="url(#rack)" stroke="rgba(255,255,255,0.10)"/>
    </g>

    <g opacity="0.9">
      <g transform="translate(24 26)">
        <rect x="0" y="0" width="210" height="44" rx="10" fill="rgba(255,255,255,0.04)"/>
        <rect x="0" y="56" width="210" height="44" rx="10" fill="rgba(255,255,255,0.04)"/>
        <rect x="0" y="112" width="210" height="44" rx="10" fill="rgba(255,255,255,0.04)"/>
        <rect x="0" y="168" width="210" height="44" rx="10" fill="rgba(255,255,255,0.04)"/>
        <rect x="0" y="224" width="210" height="44" rx="10" fill="rgba(255,255,255,0.04)"/>
        <circle cx="186" cy="22" r="6" fill="rgba(0,255,163,0.75)"/>
        <circle cx="186" cy="78" r="6" fill="rgba(0,180,255,0.75)"/>
        <circle cx="186" cy="134" r="6" fill="rgba(255,210,0,0.85)"/>
        <circle cx="186" cy="190" r="6" fill="rgba(0,255,163,0.75)"/>
        <circle cx="186" cy="246" r="6" fill="rgba(236,72,153,0.75)"/>
      </g>

      <g transform="translate(324 46)">
        <rect x="0" y="0" width="210" height="44" rx="10" fill="rgba(255,255,255,0.04)"/>
        <rect x="0" y="56" width="210" height="44" rx="10" fill="rgba(255,255,255,0.04)"/>
        <rect x="0" y="112" width="210" height="44" rx="10" fill="rgba(255,255,255,0.04)"/>
        <rect x="0" y="168" width="210" height="44" rx="10" fill="rgba(255,255,255,0.04)"/>
        <rect x="0" y="224" width="210" height="44" rx="10" fill="rgba(255,255,255,0.04)"/>
        <circle cx="186" cy="22" r="6" fill="rgba(0,255,163,0.65)"/>
        <circle cx="186" cy="78" r="6" fill="rgba(0,180,255,0.65)"/>
        <circle cx="186" cy="134" r="6" fill="rgba(0,255,163,0.65)"/>
        <circle cx="186" cy="190" r="6" fill="rgba(255,210,0,0.80)"/>
        <circle cx="186" cy="246" r="6" fill="rgba(0,180,255,0.65)"/>
      </g>

      <g transform="translate(624 66)">
        <rect x="0" y="0" width="210" height="44" rx="10" fill="rgba(255,255,255,0.04)"/>
        <rect x="0" y="56" width="210" height="44" rx="10" fill="rgba(255,255,255,0.04)"/>
        <rect x="0" y="112" width="210" height="44" rx="10" fill="rgba(255,255,255,0.04)"/>
        <rect x="0" y="168" width="210" height="44" rx="10" fill="rgba(255,255,255,0.04)"/>
        <rect x="0" y="224" width="210" height="44" rx="10" fill="rgba(255,255,255,0.04)"/>
        <circle cx="186" cy="22" r="6" fill="rgba(0,180,255,0.60)"/>
        <circle cx="186" cy="78" r="6" fill="rgba(0,255,163,0.60)"/>
        <circle cx="186" cy="134" r="6" fill="rgba(0,180,255,0.60)"/>
        <circle cx="186" cy="190" r="6" fill="rgba(0,255,163,0.60)"/>
        <circle cx="186" cy="246" r="6" fill="rgba(255,210,0,0.75)"/>
      </g>
    </g>
  </g>

  <g opacity="0.75">
    <text x="80" y="78" font-family="Inter,system-ui,Segoe UI,Arial" font-size="28" font-weight="800" fill="rgba(245,245,245,0.92)">Mining Farm</text>
    <text x="80" y="110" font-family="Inter,system-ui,Segoe UI,Arial" font-size="13" font-weight="600" fill="rgba(245,245,245,0.58)">Server racks • power telemetry • simulated environment</text>
  </g>
</svg>

